<svg width="255" height="35" xmlns="http://www.w3.org/2000/svg" xmlns:svg="http://www.w3.org/2000/svg" xmlns:xlink="http://www.w3.org/1999/xlink">
 <!-- Created with SVG-edit - https://github.com/SVG-Edit/svgedit-->
 <defs>
  <symbol height="88" id="svg_41" viewBox="0 0 305 88" width="305" xmlns="http://www.w3.org/2000/svg">
   <path clip-rule="evenodd" d="m265,26.92l-1.81,0l0,22.25l1.81,0l0,0.86l-6.57,0l0,-0.86l1.81,0l0,-22.25l-4.26,0l0,23.89l-14.11,-22.67l0,21.03l1.82,0l0,0.86l-11.81,0l0,-0.86l2.78,0l-2.17,-6.75l-7.38,0l-2.27,6.75l2.01,0l0,0.86l-10.71,0l0,-0.86l1.8,0l0,-20.33l-7,21.45l-7.41,-20.83l0,19.71l1.97,0l0,0.86l-6.6,0c-1.69,0 -4.77,-1.31 -4.77,-6.2l0,-2.06c0,-2.77 -1.37,-3.94 -4.11,-3.94l-1.87,0l0,11.34l2.79,0l0,0.86l-15.42,0l0,-0.86l2.77,0l-2.16,-6.75l-7.38,0l-2.27,6.75l2.01,0l0,0.86l-4.54,0l0,-0.86l1.6,0l8.13,-24.17l7.87,24.17l3.65,0l0,-22.25l-1.8,0l0,-0.87l7.07,0c4.71,0 7.14,2.59 7.14,6c0,2.4 -1.57,4.64 -3.81,5.35c2.58,0.76 3.41,3.01 3.41,5.7l0,3.51c0,1.61 0.89,2.56 1.91,2.56l3.59,0l0,-22.25l-1.81,0l0,-0.87l4.69,0l6.32,18.24l6.02,-18.24l4.78,0l0,0.87l-1.81,0l0,22.25l3.01,0l8.13,-24.17l7.88,24.17l3.12,0l0,-22.25l-1.8,0l0,-0.87l5.05,0l10.87,17.46l0,-16.59l-1.82,0l0,-0.87l11.66,0l0,0.87zm-97.98,14.65l6.85,0l-3.39,-10.51l-3.46,10.51zm21,-4.61c2.88,0 4.29,-2.89 4.29,-4.77c0,-3.42 -1.85,-5.27 -4.6,-5.27l-1.56,0l0,10.04l1.87,0zm37.36,4.61l6.85,0l-3.38,-10.51l-3.47,10.51zm-83.88,-16.09c5.73,0 9.97,7.01 9.97,12.58c0,6.46 -4.25,12.55 -9.97,12.55c-5.73,0 -9.97,-6.48 -9.97,-12.55c0,-5.56 3.92,-12.58 9.97,-12.58zm0,24.3c5.79,0 6.16,-7.97 6.16,-11.72c0,-3.75 -0.48,-11.72 -6.16,-11.72c-5.7,0 -6.13,7.97 -6.13,11.72c0,3.78 0.33,11.72 6.13,11.72zm-17.48,-22.87l0,-0.86l6.57,0l0,0.87l-1.81,0l0,22.25l1.81,0l0,0.86l-6.57,0l0,-0.86l1.81,0l0,-22.25l-1.81,-0.01zm-20.34,22.46c0.3,0 0.73,-0.06 1.36,-0.63l0.48,0.7c-0.49,0.48 -0.99,0.83 -2.06,0.83c-1.68,0 -4.76,-1.31 -4.76,-6.2l0,-2.3c0,-2.77 -1.38,-3.95 -4.11,-3.95l-1.87,0l0,11.35l2.79,0l0,0.86l-7.55,0l0,-0.86l1.8,0l0,-22.25l-1.8,0l0,-0.87l7.07,0c4.71,0 7.15,2.59 7.15,6c0,2.4 -1.57,4.64 -3.81,5.35c2.57,0.76 3.41,2.99 3.41,5.7l0,3.69c0,1.61 0.89,2.58 1.9,2.58zm-9.09,-12.41c2.87,0 4.28,-2.89 4.28,-4.77c0,-3.42 -1.85,-5.27 -4.6,-5.27l-1.55,0l0,10.04l1.87,0zm-17.49,-11.48c5.73,0 9.97,7.01 9.97,12.58c0,6.46 -4.25,12.55 -9.97,12.55c-5.72,0 -9.97,-6.48 -9.97,-12.55c0,-5.56 3.92,-12.58 9.97,-12.58zm0,24.3c5.79,0 6.16,-7.97 6.16,-11.72c0,-3.75 -0.47,-11.72 -6.16,-11.72c-5.69,0 -6.13,7.97 -6.13,11.72c0,3.78 0.33,11.72 6.13,11.72zm-17.47,-22.87l0,-0.86l6.57,0l0,0.87l-1.81,0l0,22.25l1.81,0l0,0.86l-6.57,0l0,-0.86l1.81,0l0,-22.25l-1.81,-0.01zm-7.41,13.73l0,-0.86l6.89,0l0,0.86l-1.81,0l0,9.39l-0.84,0c-0.07,-0.86 -0.49,-1.46 -1.1,-1.46c-1.97,0 -2.26,2.03 -5.52,2.03c-5.99,0 -9.84,-7.22 -9.84,-12.54c0,-5.06 3.47,-12.58 10.25,-12.58c2.23,0 3.2,1.27 4,1.27c0.81,0 1.22,-0.35 1.36,-1.17l0.72,0l0,7.59l-0.73,0c-0.52,-4.7 -3.05,-6.83 -5.33,-6.83c-6.01,0 -6.43,7.61 -6.43,11.72c0,4.51 0.55,11.72 6,11.72c2.87,0 4.51,-2.54 4.51,-4.79l0,-4.35l-2.13,0zm64.4,0l0,-0.86l6.89,0l0,0.86l-1.81,0l0,9.39l-0.84,0c-0.08,-0.86 -0.49,-1.46 -1.1,-1.46c-1.98,0 -2.26,2.03 -5.53,2.03c-5.99,0 -9.84,-7.22 -9.84,-12.54c0,-5.06 3.47,-12.58 10.26,-12.58c2.23,0 3.2,1.27 4,1.27c0.81,0 1.22,-0.35 1.35,-1.17l0.73,0l0,7.59l-0.74,0c-0.52,-4.7 -3.04,-6.83 -5.32,-6.83c-6.02,0 -6.43,7.61 -6.43,11.72c0,4.51 0.54,11.72 5.99,11.72c2.88,0 4.51,-2.54 4.51,-4.79l0,-4.35l-2.12,0zm15.97,24.69l0,-0.03c0,-1.74 -1.14,-2.85 -2.48,-2.85c-1.31,0 -2.56,1.16 -2.56,2.84l0,0.03c0,1.71 1.25,2.85 2.56,2.85c1.36,0 2.48,-1.06 2.48,-2.84zm-5,2.26l0,1.41l-1.05,0l0,-10.42l1.05,0l0,4.53c0.58,-0.89 1.41,-1.64 2.71,-1.64c1.69,0 3.37,1.39 3.37,3.82l0,0.03c0,2.41 -1.66,3.83 -3.37,3.83c-1.31,0 -2.16,-0.74 -2.71,-1.56zm14.56,-2.69c-0.11,-1.34 -0.85,-2.51 -2.25,-2.51c-1.23,0 -2.16,1.07 -2.3,2.51l4.55,0zm-5.61,0.43l0,-0.03c0,-2.12 1.43,-3.83 3.38,-3.83c2.09,0 3.3,1.74 3.3,3.89c0,0.14 0,0.23 -0.02,0.36l-5.6,0c0.15,1.59 1.23,2.49 2.49,2.49c0.97,0 1.65,-0.41 2.22,-1.04l0.66,0.62c-0.71,0.82 -1.57,1.38 -2.91,1.38c-1.94,0 -3.52,-1.56 -3.52,-3.84zm14.54,0.96l0,-0.72c-0.52,-0.15 -1.22,-0.31 -2.08,-0.31c-1.32,0 -2.06,0.6 -2.06,1.53l0,0.03c0,0.92 0.82,1.46 1.78,1.46c1.29,0 2.36,-0.82 2.36,-1.99zm-5.21,0.57l0,-0.03c0,-1.56 1.23,-2.38 3.02,-2.38c0.9,0 1.55,0.13 2.17,0.31l0,-0.26c0,-1.32 -0.77,-2.01 -2.1,-2.01c-0.83,0 -1.49,0.23 -2.14,0.54l-0.32,-0.89c0.78,-0.38 1.55,-0.62 2.57,-0.62c1,0 1.76,0.27 2.28,0.82c0.48,0.5 0.72,1.21 0.72,2.15l0,4.51l-1.01,0l0,-1.11c-0.49,0.67 -1.31,1.26 -2.55,1.26c-1.31,0 -2.64,-0.78 -2.64,-2.29zm9.7,-0.66l0,-4.58l1.05,0l0,4.31c0,1.37 0.71,2.23 1.95,2.23c1.2,0 2.12,-0.93 2.12,-2.31l0,-4.23l1.04,0l0,7.38l-1.04,0l0,-1.29c-0.48,0.8 -1.2,1.44 -2.42,1.44c-1.71,0 -2.7,-1.19 -2.7,-2.95zm10.25,0.84l0,-4.45l-0.98,0l0,-0.97l0.98,0l0,-2.22l1.05,0l0,2.22l2.24,0l0,0.97l-2.24,0l0,4.31c0,0.9 0.48,1.23 1.19,1.23c0.35,0 0.66,-0.07 1.02,-0.26l0,0.94c-0.36,0.2 -0.76,0.32 -1.27,0.32c-1.13,0 -1.99,-0.59 -1.99,-2.09zm11.8,-5.42l1.12,0l-2.97,7.62c-0.6,1.53 -1.28,2.08 -2.34,2.08c-0.59,0 -1.03,-0.13 -1.51,-0.37l0.36,-0.87c0.34,0.19 0.65,0.27 1.1,0.27c0.63,0 1.03,-0.34 1.45,-1.38l-3.21,-7.35l1.16,0l2.57,6.15l2.27,-6.15z" fill="#1A1919" fill-rule="evenodd" id="svg_1"/>
  </symbol>
 </defs>
 <g class="layer">
  <title>Layer 1</title>
  <use id="svg_42" transform="matrix(1.10081 0 0 1.10081 -23.0506 -7.78442)" x="-17.25" xlink:href="#svg_41" y="-14.14"/>
 </g>
</svg>