<svg width="220" height="50" xmlns="http://www.w3.org/2000/svg" xmlns:svg="http://www.w3.org/2000/svg" xmlns:xlink="http://www.w3.org/1999/xlink">
 <!-- Created with SVG-edit - https://github.com/SVG-Edit/svgedit-->
 <defs>
  <symbol height="88" id="svg_1" viewBox="0 0 305 88" width="305" xmlns="http://www.w3.org/2000/svg">
   <path d="m66.47,39.77c-0.94,-0.66 -1.96,-1.2 -3.03,-1.61c0.37,-0.24 1.85,-1.33 1.85,-1.33c1.01,-0.94 1.81,-2.09 2.35,-3.36c0.55,-1.28 0.82,-2.65 0.81,-4.04c0.06,-1.97 -0.54,-3.9 -1.68,-5.5c-1.22,-1.7 -3.29,-3.7 -8.58,-3.98l-2.09,-0.05l-8.1,0l0,38.63l7.87,0c4.94,0 9.29,-0.35 12.12,-4.35c1.27,-1.93 1.93,-4.2 1.9,-6.51c0,-4.55 -2.14,-6.91 -3.42,-7.9l0,0zm-13.35,1.16l2.52,0c3.03,0 6.12,0 8.11,2.65c0.85,1.19 1.29,2.62 1.26,4.09c0.05,1.38 -0.37,2.74 -1.19,3.85c-1.45,1.88 -3.44,2.18 -5.55,2.34l-1.86,0.06l-3.29,0l0,-12.99zm5.81,-4.87l-2.91,0.38l-2.9,0l0,-11.9l2.59,0c2.31,0 4.93,0 6.55,2.07c0.48,0.58 1.11,1.56 1.11,3.53c0,2.98 -1.63,5.13 -4.44,5.91" fill="black" id="svg_3"/>
   <path d="m72.89,19.9l0,38.62l5.17,0l0,-38.62l-5.17,0l0,0z" fill="black" id="svg_4"/>
   <path d="m114.61,24.17c-3.62,-3.27 -8.18,-4.92 -13.49,-4.92c-8.59,0 -13.47,4.47 -15.63,7.09c-2.88,3.65 -4.44,8.18 -4.43,12.85c0,8.38 4.49,15.42 11.77,18.45c2.58,1.05 5.35,1.58 8.13,1.54c8.24,-0.12 15.27,-4.77 18.39,-12.09c1.09,-2.58 1.66,-5.36 1.67,-8.17c0,-2.11 -0.46,-9.44 -6.41,-14.75zm-22.92,3.16c2.62,-2.16 5.92,-3.32 9.31,-3.25c6.07,0 11.21,3.3 13.41,8.63c0.81,2.01 1.21,4.16 1.18,6.32c0,7.1 -3.95,10.88 -5.65,12.2c-2.45,1.88 -5.42,2.95 -8.5,3.05c-6.48,0.25 -10.14,-3.18 -11.77,-5.26c-2.13,-2.85 -3.27,-6.32 -3.25,-9.88c0,-2.18 0.5,-7.73 5.27,-11.81" fill="black" id="svg_5"/>
   <path d="m118.16,19.9l0,4.75l9.3,0l0,33.87l5.17,0l0,-33.87l9.42,0l0,-4.75l-23.89,0z" fill="black" id="svg_6"/>
   <path d="m172.97,39.8l14.86,0l0,-4.61l-14.86,0l0,-10.43l15.02,0l0,-4.86l-20.17,0l-0.03,0.15l0,15.3l-18.4,0l0,-15.45l-5.07,0l0,38.62l5.07,0l0,-18.39l18.4,0l0,18.39l20.36,0l0,-4.77l-15.18,0l0,-13.95z" fill="black" id="svg_7"/>
   <path d="m204.34,40.55c1.46,-0.2 2.88,-0.63 4.22,-1.27c0.94,-0.48 1.78,-1.16 2.46,-1.97c1.68,-2.02 2.56,-4.58 2.47,-7.21l0,-0.27c0.04,-2.14 -0.61,-4.24 -1.86,-5.98c-2.27,-3.11 -5.78,-3.73 -8.56,-3.91l-2.94,-0.05l-8.17,0l0,38.63l5.17,0l0,-17.59l1.92,0c0,0.18 9.78,17.5 9.78,17.5l5.68,0.09l0.28,0c0,0 -10.28,-17.56 -10.52,-17.98l0.07,0.01zm1.48,-5.07c-1.38,0.79 -3.36,0.96 -6.32,1.01l-2.37,0l0,-11.95l3.71,0c2.52,0.08 5.12,0.11 6.65,2.46c0.63,1.04 0.93,2.25 0.89,3.47c0,3.32 -1.96,4.68 -2.56,5.01" fill="black" id="svg_8"/>
   <path d="m215.77,58.5l4.98,0c0.17,-0.13 3.22,-19.46 3.22,-19.46c0,0 0.64,-4.21 0.88,-5.83c0.23,0.67 0.6,1.7 0.6,1.7l0.85,2.09l9.23,22.3l1.63,0.02c0.14,-0.12 9.97,-23.84 9.97,-23.84c0.01,-0.01 0.57,-1.46 0.9,-2.29c0.07,0.57 0.67,4.91 0.67,4.91l3.2,20.4l5.1,0l-6.79,-39.5l-0.93,0c-0.13,0.09 -10.47,24.75 -10.47,24.75c0,0 -1.77,4.76 -2.3,6.2c-0.22,-0.63 -0.98,-2.79 -0.98,-2.79l-0.92,-2.41l-0.53,-1.35l-10.13,-24.4l-0.99,0l-7.19,39.5z" fill="black" id="svg_9"/>
   <path d="m50.32,69.79l-0.88,0l0,-4.71l-1.44,0l0,-0.76l3.75,0l0,0.76l-1.43,0l0,4.71z" fill="black" id="svg_10"/>
   <path d="m54.03,64.32l0.88,0l0,2.02l2.67,0l0,-2.02l0.88,0l0,5.47l-0.88,0l0,-2.66l-2.67,0l0,2.66l-0.88,0l0,-5.47z" fill="black" id="svg_11"/>
   <path d="m61.31,64.32l3.03,0l0,0.76l-2.15,0l0,1.36l2.15,0l0,0.78l-2.15,0l0,1.77l2.15,0l0,0.8l-3.03,0l0,-5.47z" fill="black" id="svg_12"/>
   <path d="m70.85,64.32l0.88,0l0,2.02l2.67,0l0,-2.02l0.88,0l0,5.47l-0.88,0l0,-2.66l-2.67,0l0,2.66l-0.88,0l0,-5.47z" fill="black" id="svg_13"/>
   <path d="m78.13,64.32l3.02,0l0,0.76l-2.14,0l0,1.36l2.14,0l0,0.78l-2.14,0l0,1.77l2.14,0l0,0.8l-3.02,0l0,-5.47z" fill="black" id="svg_14"/>
   <path d="m86.73,68.38l-2.14,0l-0.63,1.41l-0.93,0l2.63,-5.68l2.62,5.68l-0.93,0l-0.62,-1.41zm-0.31,-0.74l-0.55,-1.25c-0.08,-0.2 -0.15,-0.41 -0.2,-0.62c-0.05,0.21 -0.12,0.42 -0.2,0.62l-0.55,1.25l1.5,0z" fill="black" id="svg_15"/>
   <path d="m90.4,64.32l0.87,0l0,4.67l1.98,0l0,0.8l-2.85,0l0,-5.47z" fill="black" id="svg_16"/>
   <path d="m96.46,64.32l-0.88,0l0,5.47l0.88,0l0,-5.47z" fill="black" id="svg_17"/>
   <path d="m99.33,64.11l3.45,3.34c0.21,0.21 0.41,0.43 0.59,0.66l0,-3.79l0.81,0l0,5.68l-3.51,-3.4c-0.19,-0.19 -0.37,-0.39 -0.53,-0.61l0,3.79l-0.81,0l0,-5.67z" fill="black" id="svg_18"/>
   <path d="m112.18,66.99c0,0.22 0.01,0.39 0.01,0.51c0,1.55 -0.92,2.43 -2.5,2.43c-0.39,0.02 -0.77,-0.04 -1.13,-0.17c-0.37,-0.14 -0.7,-0.35 -0.97,-0.62c-0.53,-0.56 -0.81,-1.31 -0.8,-2.08c-0.01,-0.38 0.06,-0.76 0.2,-1.11c0.14,-0.36 0.36,-0.68 0.63,-0.95c0.56,-0.53 1.3,-0.82 2.07,-0.8c0.39,-0.02 0.78,0.06 1.14,0.23c0.35,0.17 0.66,0.41 0.91,0.72l-0.65,0.49c-0.17,-0.2 -0.38,-0.37 -0.62,-0.48c-0.24,-0.11 -0.5,-0.16 -0.77,-0.15c-0.53,0.01 -1.04,0.24 -1.41,0.63c-0.37,0.38 -0.58,0.9 -0.57,1.44c0,0.53 0.2,1.05 0.58,1.44c0.37,0.38 0.88,0.6 1.41,0.62c1.02,0 1.62,-0.52 1.62,-1.33l0,-0.07l-1.3,0l0,-0.75l2.15,0z" fill="black" id="svg_19"/>
   <path d="m119.45,69.79l-0.83,0l0,-5.47l1.33,0c0.48,-0.06 0.95,0.04 1.36,0.28c0.18,0.15 0.32,0.33 0.42,0.55c0.09,0.21 0.14,0.44 0.13,0.67c0.01,0.24 -0.04,0.47 -0.13,0.68c-0.1,0.22 -0.24,0.41 -0.42,0.56c-0.41,0.23 -0.89,0.32 -1.36,0.27l-0.5,0l0,2.46zm0.28,-3.18c0.81,0 1.22,-0.1 1.22,-0.73c0,-0.66 -0.4,-0.8 -1.22,-0.8l-0.23,0l0,1.52l0.23,0.01z" fill="black" id="svg_20"/>
   <path d="m128.97,69.09c-0.55,0.54 -1.28,0.84 -2.05,0.84c-0.77,0 -1.5,-0.3 -2.05,-0.84c-0.27,-0.26 -0.49,-0.58 -0.63,-0.92c-0.15,-0.35 -0.22,-0.73 -0.21,-1.1c-0.01,-0.38 0.06,-0.76 0.21,-1.11c0.14,-0.35 0.36,-0.66 0.63,-0.93c0.55,-0.53 1.28,-0.83 2.05,-0.83c0.76,0 1.5,0.3 2.05,0.83c0.27,0.27 0.49,0.58 0.63,0.93c0.15,0.35 0.22,0.73 0.22,1.11c0,0.37 -0.07,0.75 -0.22,1.1c-0.14,0.34 -0.36,0.66 -0.63,0.92zm-0.65,-3.48c-0.18,-0.19 -0.4,-0.34 -0.64,-0.44c-0.24,-0.1 -0.5,-0.15 -0.76,-0.15c-0.26,0 -0.52,0.05 -0.76,0.15c-0.24,0.1 -0.46,0.25 -0.64,0.44c-0.37,0.39 -0.58,0.91 -0.58,1.45c0,0.54 0.21,1.06 0.58,1.45c0.18,0.19 0.4,0.34 0.64,0.44c0.24,0.1 0.5,0.16 0.76,0.16c0.26,0 0.52,-0.06 0.76,-0.16c0.24,-0.1 0.45,-0.25 0.64,-0.44c0.37,-0.39 0.58,-0.91 0.58,-1.45c0,-0.54 -0.21,-1.06 -0.58,-1.45" fill="black" id="svg_21"/>
   <path d="m132.66,64.32l1.03,2.76c0.1,0.29 0.2,0.57 0.28,0.86c0.16,-0.52 0.27,-0.82 0.3,-0.91l1.09,-2.92l1.15,2.97c0.1,0.26 0.19,0.55 0.28,0.87c0.08,-0.29 0.17,-0.57 0.27,-0.85l1.02,-2.78l0.88,0l-2.1,5.68l-1.24,-3.12c-0.11,-0.27 -0.2,-0.53 -0.27,-0.77c-0.07,0.27 -0.16,0.53 -0.25,0.78l-1.22,3.11l-2.09,-5.68l0.87,0z" fill="black" id="svg_22"/>
   <path d="m141.16,64.32l3.03,0l0,0.76l-2.15,0l0,1.36l2.15,0l0,0.78l-2.15,0l0,1.77l2.15,0l0,0.8l-3.03,0l0,-5.47z" fill="black" id="svg_23"/>
   <path d="m147.63,69.79l-0.83,0l0,-5.47l1.23,0c0.47,-0.05 0.95,0.05 1.35,0.3c0.17,0.15 0.31,0.34 0.4,0.54c0.09,0.21 0.13,0.44 0.12,0.66c0.03,0.19 0.01,0.37 -0.04,0.54c-0.05,0.18 -0.14,0.34 -0.26,0.48c-0.11,0.14 -0.26,0.25 -0.42,0.33c-0.16,0.08 -0.34,0.12 -0.52,0.13l1.87,2.48l-1,0l-1.8,-2.44l-0.1,0l0,2.45zm0.21,-3.14c0.77,0 1.16,-0.09 1.16,-0.75c0,-0.67 -0.37,-0.82 -1.16,-0.82l-0.16,0l0,1.57l0.16,0z" fill="black" id="svg_24"/>
   <path d="m161.26,69.09c-0.55,0.54 -1.29,0.84 -2.05,0.84c-0.77,0 -1.5,-0.3 -2.05,-0.84c-0.27,-0.26 -0.49,-0.58 -0.63,-0.92c-0.15,-0.35 -0.22,-0.73 -0.22,-1.1c0,-0.38 0.07,-0.76 0.22,-1.11c0.14,-0.35 0.36,-0.66 0.63,-0.93c0.55,-0.53 1.28,-0.83 2.05,-0.83c0.76,0 1.5,0.3 2.05,0.83c0.27,0.27 0.49,0.58 0.63,0.93c0.15,0.35 0.22,0.73 0.22,1.11c0,0.37 -0.07,0.75 -0.22,1.1c-0.14,0.34 -0.36,0.66 -0.63,0.92zm-0.65,-3.48c-0.18,-0.19 -0.4,-0.34 -0.64,-0.44c-0.24,-0.1 -0.5,-0.15 -0.76,-0.15c-0.26,0 -0.52,0.05 -0.76,0.15c-0.24,0.1 -0.46,0.25 -0.64,0.44c-0.37,0.39 -0.58,0.91 -0.58,1.45c0,0.54 0.21,1.06 0.58,1.45c0.18,0.19 0.4,0.34 0.64,0.44c0.24,0.1 0.5,0.16 0.76,0.16c0.26,0 0.52,-0.06 0.76,-0.16c0.24,-0.1 0.46,-0.25 0.64,-0.44c0.37,-0.39 0.58,-0.91 0.58,-1.45c0,-0.54 -0.21,-1.06 -0.58,-1.45" fill="black" id="svg_25"/>
   <path d="m164.72,64.32l3.03,0l0,0.76l-2.15,0l0,1.36l2.15,0l0,0.78l-2.15,0l0,2.57l-0.88,0l0,-5.47z" fill="black" id="svg_26"/>
   <path d="m174.21,64.32l0.88,0l0,4.67l1.97,0l0,0.8l-2.85,0l0,-5.47z" fill="black" id="svg_27"/>
   <path d="m180.27,64.32l-0.88,0l0,5.47l0.88,0l0,-5.47z" fill="black" id="svg_28"/>
   <path d="m183.15,64.32l3.02,0l0,0.76l-2.14,0l0,1.36l2.14,0l0,0.78l-2.14,0l0,2.57l-0.88,0l0,-5.47z" fill="black" id="svg_29"/>
   <path d="m188.73,64.32l3.03,0l0,0.76l-2.15,0l0,1.36l2.15,0l0,0.78l-2.15,0l0,1.77l2.15,0l0,0.8l-3.03,0l0,-5.47z" fill="black" id="svg_30"/>
   <path d="m199.1,69.79l-0.83,0l0,-5.47l1.33,0c0.48,-0.06 0.95,0.04 1.36,0.28c0.18,0.15 0.32,0.33 0.42,0.55c0.09,0.21 0.14,0.44 0.13,0.67c0.01,0.24 -0.04,0.47 -0.13,0.68c-0.1,0.22 -0.24,0.41 -0.42,0.56c-0.41,0.23 -0.89,0.32 -1.36,0.27l-0.5,0l0,2.46zm0.28,-3.18c0.81,0 1.22,-0.1 1.22,-0.73c0,-0.66 -0.4,-0.8 -1.22,-0.8l-0.23,0l0,1.52l0.23,0.01z" fill="black" id="svg_31"/>
   <path d="m203.91,64.32l0.88,0l0,4.67l1.97,0l0,0.8l-2.85,0l0,-5.47z" fill="black" id="svg_32"/>
   <path d="m212.05,68.38l-2.15,0l-0.63,1.41l-0.92,0l2.62,-5.68l2.62,5.68l-0.93,0l-0.61,-1.41zm-0.31,-0.74l-0.56,-1.25c-0.08,-0.2 -0.15,-0.41 -0.2,-0.62c-0.05,0.21 -0.12,0.42 -0.2,0.62l-0.55,1.25l1.51,0z" fill="black" id="svg_33"/>
   <path d="m215.71,64.11l3.44,3.34c0.21,0.21 0.41,0.43 0.59,0.66l0,-3.79l0.81,0l0,5.68l-3.51,-3.4c-0.19,-0.19 -0.37,-0.39 -0.52,-0.61l0,3.79l-0.81,0l0,-5.67z" fill="black" id="svg_34"/>
   <path d="m223.4,64.32l0.88,0l0,2.26l1.95,-2.26l1.08,0l-2.15,2.43l2.41,3.04l-1.14,0l-2.15,-2.79l0,2.79l-0.88,0l0,-5.47z" fill="black" id="svg_35"/>
   <path d="m231.18,69.79l-0.88,0l0,-4.71l-1.44,0l0,-0.76l3.76,0l0,0.76l-1.44,0l0,4.71z" fill="black" id="svg_36"/>
   <path d="m239.32,69.09c-0.54,0.54 -1.28,0.84 -2.05,0.84c-0.76,0 -1.5,-0.3 -2.05,-0.84c-0.27,-0.26 -0.48,-0.58 -0.63,-0.92c-0.14,-0.35 -0.22,-0.73 -0.21,-1.1c0,-0.38 0.07,-0.76 0.21,-1.11c0.15,-0.35 0.36,-0.66 0.63,-0.93c0.55,-0.53 1.29,-0.83 2.05,-0.83c0.77,0 1.5,0.3 2.05,0.83c0.27,0.27 0.49,0.58 0.63,0.93c0.15,0.35 0.23,0.73 0.22,1.11c0.01,0.37 -0.07,0.75 -0.21,1.1c-0.15,0.34 -0.37,0.66 -0.64,0.92l0,0zm-0.65,-3.48c-0.18,-0.19 -0.4,-0.34 -0.64,-0.44c-0.24,-0.1 -0.49,-0.15 -0.75,-0.15c-0.27,0 -0.53,0.05 -0.77,0.15c-0.24,0.1 -0.45,0.25 -0.64,0.44c-0.37,0.39 -0.57,0.91 -0.57,1.45c0,0.54 0.2,1.06 0.57,1.45c0.18,0.19 0.4,0.34 0.64,0.44c0.24,0.1 0.5,0.16 0.76,0.16c0.26,0 0.52,-0.06 0.76,-0.16c0.24,-0.1 0.46,-0.25 0.64,-0.44c0.38,-0.39 0.59,-0.91 0.59,-1.45c0,-0.54 -0.21,-1.06 -0.59,-1.45" fill="black" id="svg_37"/>
   <path d="m242.79,64.11l3.44,3.34c0.21,0.21 0.41,0.43 0.59,0.66l0,-3.79l0.81,0l0,5.68l-3.51,-3.4c-0.19,-0.19 -0.37,-0.39 -0.52,-0.61l0,3.79l-0.81,0l0,-5.67z" fill="black" id="svg_38"/>
   <path d="m251.43,67.51l-0.51,0l0,-2.74l-0.84,0l0,-0.44l2.19,0l0,0.44l-0.84,0l0,2.74z" fill="black" id="svg_39"/>
   <path d="m256.12,65.5c-0.03,0.16 -0.08,0.31 -0.15,0.45l-0.83,1.69l-0.82,-1.73c-0.07,-0.13 -0.12,-0.27 -0.16,-0.41c0,0.15 -0.02,0.3 -0.06,0.45l-0.34,1.57l-0.47,0l0.75,-3.32l0.93,2c0.03,0.06 0.08,0.21 0.17,0.44c0.07,-0.18 0.14,-0.32 0.18,-0.44l0.91,-2l0.77,3.32l-0.48,0l-0.35,-1.58c-0.01,-0.06 -0.03,-0.2 -0.06,-0.43" fill="black" id="svg_40"/>
  </symbol>
 </defs>
 <g class="layer">
  <title>Layer 1</title>
  <use id="svg_2" transform="matrix(1.01208 0 0 1.01208 -29.0089 -12.2433)" x="-13.83" xlink:href="#svg_1" y="0"/>
 </g>
</svg>