<svg width="470" height="500" xmlns="http://www.w3.org/2000/svg" xmlns:svg="http://www.w3.org/2000/svg" preserveAspectRatio="xMidYMid meet" version="1.0">
 <g class="layer">
  <title>Layer 1</title>
  <g id="svg_44">
   <path d="m7.72,193.84l1.15,157.03l10.39,5c16.93,8.08 223.23,-3.08 233.23,-12.7c0.77,-0.38 -0.77,-12.7 -3.46,-26.94l-4.23,-25.79l-16.16,2.69c-20.01,3.08 -104.69,9.24 -133.94,9.62l-22.32,0l0,-103.92l0,-103.92l69.28,0l69.28,0l0,-28.87l0,-28.87l-101.99,0l-101.99,0l0.77,156.64z" id="svg_35"/>
   <path d="m403.37,83.39l0,80.82l-28.87,0l-28.87,0l0,-76.97l0,-76.97l-32.71,0l-32.71,0l0,230.92l0,230.92l32.71,0l32.71,0l0,-127.01l0,-127.39l28.1,1.15l27.71,1.15l1.15,135.48l0.77,135.86l30.79,0l30.79,0l0,-244.39l0,-244.39l-30.79,0l-30.79,0l0,80.82z" id="svg_28"/>
  </g>
 </g>
</svg>