<svg width="470" height="500" xmlns="http://www.w3.org/2000/svg" xmlns:svg="http://www.w3.org/2000/svg" preserveAspectRatio="xMidYMid meet" version="1.0">
 <g class="layer">
  <title>Layer 1</title>
  <g id="svg_43">
   <path d="m149.19,418.25c0,51.71 1.01,64.47 5.37,70.51l5.04,7.39l139.35,0l139.01,0l0,-25.18l0,-25.18l-115.84,0l-115.84,0l0,-45.33l0,-45.33l-28.54,0l-28.54,0l0,63.13z" id="svg_41"/>
   <path d="m122.33,132.51c-58.09,20.15 -83.27,83.61 -54.4,136.32c18.47,34.25 53.05,51.04 101.07,48.69c43.65,-2.01 69.17,-17.8 88.64,-54.4c5.71,-10.74 7.39,-19.47 7.39,-40.63c-0.34,-23.5 -1.34,-29.21 -10.07,-44.99c-11.75,-21.15 -32.91,-38.28 -56.75,-45.67c-21.15,-6.38 -56.41,-6.04 -75.88,0.67zm62.45,46.67c33.58,16.12 34.25,69.5 1.34,85.96c-15.78,8.06 -39.29,7.72 -52.72,-0.67c-17.46,-10.41 -26.53,-33.58 -21.15,-54.06c3.69,-12.76 17.12,-28.88 28.54,-33.58c11.08,-4.37 31.9,-3.36 43.99,2.35z" id="svg_36"/>
   <path d="m370.13,70.39l-1.01,61.45l-35.93,1.01l-36.26,1.01l0,23.17l0,23.17l36.26,1.01l35.93,1.01l1.01,22.5l1.01,22.83l-37.27,0l-36.93,0l0,25.18l0,25.18l36.93,0l36.93,0l0,48.69l0,48.69l28.54,0l28.54,0l0,-183l0,-183l-28.54,0l-28.54,0l-0.67,61.11z" id="svg_27"/>
   <path d="m132.4,32.78l0,30.22l-53.72,0l-53.72,0l0,23.5l0,23.5l137.67,0l137.67,0l0,-23.5l0,-23.5l-55.4,0l-55.4,0l0,-30.22l0,-30.22l-28.54,0l-28.54,0l0,30.22z" id="svg_24"/>
  </g>
 </g>
</svg>