<svg width="220" height="80" xmlns="http://www.w3.org/2000/svg" xmlns:svg="http://www.w3.org/2000/svg">
 <g class="layer">
  <path clip-rule="evenodd" d="m40.08,18.03l-1.41,0l5.2,-5.87c0.37,-0.42 0.71,-0.75 1.04,-1.17c0.37,-0.28 0.66,-0.75 1.12,-0.85c0.66,-0.18 1.45,0.24 1.66,0.99c0.12,0.33 0.21,0.99 -0.04,1.27c-0.21,0.52 -0.66,0.75 -1.04,1.03l-6.53,4.6zm119.13,8.13l-4.42,12.01l8.86,0l-4.44,-12.01zm13.78,26.65l-4.18,0l-4.45,-12.67l-10.25,0l-4.61,12.67l-2.88,0l12.96,-32.81l0.96,0l12.45,32.81zm-81.7,-26.65l-4.41,12.01l8.85,0l-4.44,-12.01zm13.79,26.65l-4.19,0l-4.45,-12.67l-10.25,0l-4.61,12.67l-2.89,0l12.97,-32.81l0.96,0l12.46,32.81zm-7.91,9.19l-1.32,3.6l2.66,0l-1.34,-3.6zm4.14,8l-1.25,0l-1.34,-3.8l-3.08,0l-1.38,3.8l-0.87,0l3.9,-9.85l0.28,0l3.74,9.85zm111.83,-19.54c0,0 -0.04,1.74 0,2.21l-15,0l0,-31.96l14.75,0l0,2.2l-11.09,0l0,11.78l10.14,0l0,2.07l-10.14,0l0,13.7l11.34,0zm-163.16,0c0,0 -0.05,1.74 0,2.21l-15,0l0,-31.96l14.74,0l0,2.2l-11.09,0l0,11.78l10.14,0l0,2.07l-10.14,0l0,13.7l11.35,0zm132.54,2.97c-2.51,0 -4.73,-0.57 -6.61,-1.69l0,-4.07c0.99,1.22 3.5,4.02 7.32,4.02c4.63,0 6.71,-3.27 6.71,-6.51c0,-3.98 -2.53,-5.45 -5.47,-6.73c-4.63,-2.09 -5.83,-2.59 -6.96,-3.66c-1.32,-1.18 -2.14,-3.37 -2.14,-5.74c0,-6.22 4.81,-9.01 9.57,-9.01c2.79,0 5.12,0.96 6.1,1.43l0,3.88c-0.88,-1.1 -3.32,-3.71 -6.62,-3.71c-5.67,0 -5.83,5.07 -5.83,5.65c0,3.93 3.06,5.28 5.15,6.17c4.51,1.87 5.75,2.34 7.23,3.66c1.98,1.72 2.4,4.17 2.4,5.93c0,5.16 -3.36,10.38 -10.85,10.38zm-55.98,16.57c-0.76,0 -1.42,-0.17 -1.99,-0.51l0,-1.22c0.3,0.37 1.05,1.21 2.2,1.21c1.39,0 2.01,-0.98 2.01,-1.96c0,-1.19 -0.76,-1.63 -1.64,-2.02c-1.39,-0.63 -1.75,-0.77 -2.09,-1.1c-0.39,-0.35 -0.64,-1.01 -0.64,-1.72c0,-1.87 1.45,-2.7 2.87,-2.7c0.84,0 1.54,0.28 1.84,0.42l0,1.17c-0.27,-0.33 -1,-1.12 -1.99,-1.12c-1.7,0 -1.75,1.53 -1.75,1.7c0,1.18 0.92,1.59 1.54,1.85c1.36,0.57 1.73,0.71 2.17,1.1c0.6,0.52 0.72,1.26 0.72,1.78c0,1.55 -1,3.12 -3.25,3.12zm-12.15,-16.43c-2.51,0 -4.74,-0.56 -6.62,-1.68l0,-4.08c1,1.22 3.5,4.03 7.32,4.03c4.63,0 6.71,-3.27 6.71,-6.51c0,-3.98 -2.53,-5.46 -5.46,-6.74c-4.64,-2.08 -5.84,-2.58 -6.96,-3.66c-1.32,-1.17 -2.14,-3.37 -2.14,-5.73c0,-6.23 4.8,-9.01 9.57,-9.01c2.78,0 5.12,0.95 6.1,1.42l0,3.88c-0.89,-1.1 -3.32,-3.71 -6.63,-3.71c-5.66,0 -5.83,5.08 -5.83,5.66c0,3.93 3.06,5.28 5.16,6.16c4.51,1.88 5.74,2.34 7.23,3.67c1.98,1.72 2.39,4.17 2.39,5.93c0,5.16 -3.35,10.37 -10.84,10.37zm34.01,-32.86l0,2.06l-8.69,0l0,30.13l-3.65,0l0,-30.13l-9.1,0l0,-2.06l21.44,0zm-85.95,14.75c1.98,-0.1 8.57,-0.34 8.57,-6.94c0,-5.55 -4.34,-6.08 -7.56,-6.08l-3.42,0l0,12.99c0.77,0.08 1.42,0.08 2.41,0.03zm3.45,1.3l11.35,16.05c0,0 -4.04,-0.05 -4.78,0c-0.92,-1.46 -1.75,-2.77 -2.63,-4.08l-4.89,-7.18l-3.33,-4.41l-1.58,0l0,15.67l-3.66,0l0,-32.1l8.77,0c5.91,0 9.56,2.59 9.56,7.33c0,5.44 -4.61,7.88 -8.81,8.72zm20.73,28.03c0.6,-0.03 2.58,-0.1 2.58,-2.08c0,-1.67 -1.31,-1.83 -2.27,-1.83l-1.03,0l0,3.9c0.23,0.03 0.43,0.03 0.72,0.01zm1.04,0.39c0,0 -0.74,0.1 -1.29,0.11l-0.47,0l0,4.71l-1.1,0l0,-9.64l2.63,0c1.78,0 2.87,0.78 2.87,2.2c0,1.64 -1.38,2.37 -2.64,2.62zm20.93,-0.39c0.6,-0.03 2.58,-0.1 2.58,-2.08c0,-1.67 -1.31,-1.83 -2.27,-1.83l-1.03,0l0,3.9c0.23,0.03 0.43,0.03 0.72,0.01zm1.04,0.39l3.41,4.82c0,0 -1.21,-0.01 -1.44,0c-0.27,-0.44 -0.52,-0.83 -0.79,-1.23l-1.47,-2.15l-0.99,-1.33l-0.48,0l0,4.71l-1.1,0l0,-9.64l2.64,0c1.77,0 2.87,0.78 2.87,2.2c0,1.64 -1.39,2.37 -2.65,2.62zm-97.22,-35.97l18.98,23.65l-5.94,0l-16.35,-21.37c0,0 -0.31,-0.44 -0.62,-0.49l0,21.86l-4.49,0l0,-42.86l4.49,0l0,20c0.33,0 0.79,-0.56 0.79,-0.56l17.03,-19.44l4.65,0l-18.54,19.21zm105.73,40.79l0,-9.67l1.1,0l0,9.67l-1.1,0z" fill="#191E23" fill-rule="evenodd" id="svg_1"/>
 </g>
</svg>