<?xml version="1.0" standalone="no"?>
<!DOCTYPE svg PUBLIC "-//W3C//DTD SVG 20010904//EN"
 "http://www.w3.org/TR/2001/REC-SVG-20010904/DTD/svg10.dtd">
<svg version="1.0" xmlns="http://www.w3.org/2000/svg"
 width="1667.000000pt" height="833.000000pt" viewBox="0 0 1667.000000 833.000000"
 preserveAspectRatio="xMidYMid meet">

<g transform="translate(0.000000,833.000000) scale(0.100000,-0.100000)"
fill="#000000" stroke="none">
<path d="M2050 4865 l0 -714 126 -3 125 -3 -53 -44 c-83 -70 -144 -148 -192
-246 -61 -124 -80 -215 -74 -368 5 -142 32 -236 100 -352 53 -90 173 -210 263
-263 117 -69 210 -95 356 -100 147 -5 247 15 364 72 38 19 71 33 73 32 1 -2
-11 -38 -28 -80 -16 -42 -30 -79 -30 -81 0 -3 107 -4 237 -3 l237 3 45 113 45
112 262 0 262 0 44 -112 44 -113 258 -3 c242 -2 257 -1 252 15 -3 10 -156 396
-340 858 l-333 840 -102 3 -101 3 0 229 0 230 -172 2 -173 3 -3 343 -2 342
-237 -2 -237 -3 -130 -272 c-72 -150 -133 -274 -136 -277 -3 -3 -66 121 -139
274 l-134 280 -238 0 -239 0 0 -715z m286 507 c6 -4 111 -219 235 -479 123
-259 226 -469 229 -467 3 3 106 217 230 477 207 434 228 472 250 472 l25 0 3
-542 c2 -534 2 -542 -18 -548 -11 -3 -24 -3 -30 0 -6 4 -10 165 -10 458 0 253
-4 447 -9 441 -12 -14 -401 -833 -401 -846 0 -12 287 -619 299 -630 4 -5 108
204 231 462 123 259 229 475 237 481 7 6 20 9 28 5 13 -5 15 -65 15 -478 0
-289 4 -468 9 -462 5 5 56 128 114 274 57 145 111 269 120 274 12 8 20 7 31
-4 20 -21 526 -1305 526 -1336 0 -22 -4 -25 -27 -22 -26 3 -32 16 -103 193
l-75 190 -339 0 -340 0 -76 -190 c-70 -174 -78 -190 -101 -190 -17 0 -25 6
-27 20 -2 11 49 152 113 312 l115 291 -2 470 -3 471 -209 -439 c-115 -241
-216 -442 -224 -445 -8 -3 -20 -1 -27 5 -6 5 -103 202 -215 437 -112 236 -207
432 -212 438 -5 5 -7 -82 -6 -200 l3 -210 45 -5 c40 -4 45 -8 45 -30 0 -22 -5
-26 -45 -30 l-45 -5 -5 -210 -5 -210 -25 0 -25 0 -3 203 c-3 232 4 221 -100
172 -189 -89 -299 -303 -257 -502 48 -229 228 -380 455 -380 188 0 345 102
426 278 30 64 39 75 57 72 35 -5 32 -43 -8 -126 -95 -191 -298 -306 -514 -289
-264 20 -470 227 -488 489 -15 214 98 417 286 511 40 20 88 39 107 43 l34 6 0
286 0 286 -137 289 -138 289 -3 -445 c-2 -378 -4 -447 -17 -457 -8 -7 -22 -10
-30 -6 -13 5 -15 72 -15 544 0 296 3 542 7 545 8 9 25 9 39 -1z"/>
<path d="M3752 3757 c-84 -211 -152 -389 -152 -395 0 -9 81 -12 310 -12 l310
0 -19 48 c-10 26 -78 198 -151 382 -73 184 -135 341 -139 348 -4 7 -73 -155
-159 -371z"/>
<path d="M8030 4820 l0 -90 -160 0 -160 0 0 -70 0 -70 410 0 410 0 0 70 0 70
-165 0 -165 0 0 90 0 90 -85 0 -85 0 0 -90z"/>
<path d="M12540 4865 c0 -90 -57 -175 -168 -249 -64 -42 -181 -96 -245 -111
-15 -4 -30 -11 -32 -16 -3 -4 8 -36 25 -70 36 -70 29 -69 160 -18 109 42 227
114 292 180 l58 57 31 -39 c44 -56 183 -145 307 -195 59 -24 114 -44 122 -44
9 0 29 27 47 64 l32 64 -77 27 c-115 40 -209 93 -274 154 -70 64 -98 114 -105
187 l-6 54 -83 0 -84 0 0 -45z"/>
<path d="M7300 4480 l0 -410 85 0 85 0 0 410 0 410 -85 0 -85 0 0 -410z"/>
<path d="M8738 4708 l-3 -183 -107 -3 -108 -3 0 -69 0 -69 108 -3 107 -3 3
-67 3 -68 -111 0 -110 0 0 -75 0 -75 110 0 110 0 0 -145 0 -145 85 0 85 0 0
545 0 545 -85 0 -85 0 -2 -182z"/>
<path d="M10190 4680 l0 -210 -75 0 -75 0 0 200 0 200 -85 0 -85 0 0 -600 0
-600 85 0 85 0 0 330 0 331 73 -3 72 -3 3 -352 2 -353 80 0 80 0 0 635 0 635
-80 0 -80 0 0 -210z"/>
<path d="M11580 4255 l0 -635 80 0 80 0 0 635 0 635 -80 0 -80 0 0 -635z"/>
<path d="M14370 4360 l0 -530 85 0 85 0 0 250 0 250 105 0 105 0 0 70 0 70
-105 0 -105 0 0 210 0 210 -85 0 -85 0 0 -530z"/>
<path d="M5060 4775 l0 -75 356 0 357 0 -7 -72 c-9 -88 -21 -150 -47 -240
l-20 -68 -429 0 -430 0 0 -70 0 -70 285 0 285 0 0 -125 0 -125 -180 0 -180 0
0 -75 0 -75 360 0 360 0 0 -190 0 -190 80 0 80 0 0 265 0 265 -175 0 -176 0 3
123 3 122 288 3 287 2 0 70 0 70 -146 0 c-123 0 -145 2 -141 14 30 76 56 238
64 389 l6 127 -441 0 -442 0 0 -75z"/>
<path d="M6350 4755 l0 -75 235 0 235 0 0 -70 0 -70 -235 0 -235 0 0 -204 c0
-173 2 -207 16 -220 37 -37 724 -9 791 32 8 5 8 25 -1 72 -10 55 -15 65 -31
63 -11 -1 -71 -9 -132 -18 -62 -9 -193 -17 -290 -18 l-178 -2 -3 73 -3 72 231
0 230 0 0 220 0 220 -315 0 -315 0 0 -75z"/>
<path d="M13480 4745 l0 -75 273 -2 272 -3 -3 -70 c-2 -38 -10 -115 -18 -169
-8 -55 -14 -105 -14 -112 0 -12 145 -32 156 -21 14 13 35 200 41 355 l6 172
-356 0 -357 0 0 -75z"/>
<path d="M10620 4417 c0 -339 2 -396 16 -415 15 -22 16 -22 340 -22 l324 0 0
415 0 415 -340 0 -340 0 0 -393z m508 -24 l-3 -268 -165 0 -165 0 -3 268 -2
267 170 0 170 0 -2 -267z"/>
<path d="M9162 4393 l3 -408 27 -13 c44 -21 580 8 606 33 2 1 -2 33 -9 70
l-11 67 -42 -7 c-52 -8 -272 -24 -348 -25 l-58 0 0 270 0 270 180 0 180 0 0
75 0 75 -265 0 -265 0 2 -407z"/>
<path d="M8000 4523 c-173 -60 -248 -249 -162 -406 55 -102 158 -152 301 -145
130 6 206 53 264 162 17 32 22 58 22 121 -1 70 -4 87 -30 134 -35 63 -98 114
-169 136 -63 19 -168 18 -226 -2z m186 -139 c100 -48 102 -207 4 -256 -47 -24
-117 -23 -157 2 -52 31 -79 100 -63 161 11 38 51 86 85 100 33 13 95 10 131
-7z"/>
<path d="M13670 4315 l0 -145 -145 0 -145 0 0 -76 0 -77 318 6 c295 5 476 20
567 45 28 8 30 12 28 57 -1 26 -4 58 -7 70 -6 22 -7 22 -69 9 -76 -16 -249
-34 -323 -34 l-54 0 0 145 0 145 -85 0 -85 0 0 -145z"/>
<path d="M11960 4210 l0 -70 290 0 290 0 0 -60 0 -60 -175 0 -175 0 0 -70 0
-70 351 0 350 0 -3 -47 -3 -48 -347 -3 -348 -2 0 -174 c0 -155 2 -175 18 -189
17 -15 63 -17 450 -17 l432 0 0 70 0 70 -367 2 -368 3 -3 48 -3 47 350 0 351
0 0 190 0 190 -170 0 -170 0 0 60 0 60 290 0 290 0 0 70 0 70 -665 0 -665 0 0
-70z"/>
<path d="M6640 3706 c0 -273 0 -275 22 -290 19 -14 76 -16 415 -16 l393 0 0
290 0 290 -85 0 -85 0 0 -75 0 -75 -245 0 -245 0 0 75 0 75 -85 0 -85 0 0
-274z m660 -91 l0 -65 -245 0 -245 0 0 65 0 65 245 0 245 0 0 -65z"/>
<path d="M13712 3682 c2 -159 6 -213 17 -225 12 -15 55 -17 432 -17 l419 0 0
75 0 75 -350 0 -350 0 0 150 0 150 -86 0 -85 0 3 -208z"/>
<path d="M8080 3672 c0 -154 3 -192 16 -210 l15 -22 415 0 414 0 0 75 0 75
-345 0 -345 0 0 135 0 135 -85 0 -85 0 0 -188z"/>
</g>
</svg>
