<svg width="470" height="500" xmlns="http://www.w3.org/2000/svg" xmlns:svg="http://www.w3.org/2000/svg" preserveAspectRatio="xMidYMid meet" version="1.0">
 <g class="layer">
  <title>Layer 1</title>
  <path d="m84.5,26.74l0,25.74l122.17,0l122.52,0l-2.4,24.71c-3.09,30.2 -7.21,51.48 -16.13,82.36l-6.86,23.34l-147.22,0l-147.57,0l0,24.02l0,24.02l97.81,0l97.81,0l0,42.9l0,42.9l-61.77,0l-61.77,0l0,25.74l0,25.74l123.55,0l123.55,0l0,65.2l0,65.2l27.45,0l27.45,0l0,-90.94l0,-90.94l-60.06,0l-60.4,0l1.03,-42.21l1.03,-41.87l98.84,-1.03l98.49,-0.69l0,-24.02l0,-24.02l-50.1,0c-42.21,0 -49.76,-0.69 -48.39,-4.8c10.3,-26.08 19.22,-81.68 21.96,-133.5l2.06,-43.58l-151.34,0l-151.69,0l0,25.74z" id="svg_11"/>
 </g>
</svg>