<svg width="220" height="50" xmlns="http://www.w3.org/2000/svg" xmlns:svg="http://www.w3.org/2000/svg" xmlns:xlink="http://www.w3.org/1999/xlink">
 <!-- Created with SVG-edit - https://github.com/SVG-Edit/svgedit-->
 <defs>
  <symbol height="88" id="svg_43" viewBox="0 0 305 88" width="305" xmlns="http://www.w3.org/2000/svg">
   <path clip-rule="evenodd" d="m117.17,47.12l-14.01,0l6.88,-10.86l7.13,10.86zm116.94,-16.29l11.38,9.7l11.76,-9.7l5.5,0l-14.13,12.02l14.5,12.68l-5.37,0l-12.14,-10.09l-12.25,10.09l-5.38,0l14.51,-12.55l-14.14,-12.15l5.76,0zm-18.26,0l0,24.7l-3.76,0l0,-24.7l3.76,0zm-27.52,0c5.01,0.26 8.13,2.2 8.13,6.72c0,3.62 -2.12,5.43 -6,6.86c-0.13,0.12 -0.38,0.25 -0.5,0.38l11.38,10.74l-5.38,0c-3.5,-3.24 -7.13,-6.73 -10.75,-10.09l-0.63,0l-7.88,-0.13l0,-3.62l9.26,0c1.25,0 6.87,-0.65 6.87,-4.01c0,-2.71 -3,-3.1 -4.37,-3.1l-15.14,0l-0.37,20.95l-3.63,0l0,-24.7l19.01,0zm-30.64,0l0,3.75l-12.38,0l0,20.95l-4,0l0,-20.95l-12.39,0l0,-3.75l28.77,0zm-46.28,0l15.89,24.7l-4.63,0c-0.87,-1.43 -1.88,-2.98 -3,-4.53l-19.14,0c-1.25,1.29 -2.12,2.97 -3.12,4.53l-4.51,0l15.89,-24.7l2.62,0zm-62.78,0l15.01,19.91l15.01,-19.91l3.62,0l0,24.57l-3.75,0l0,-17.2l-0.25,-0.26l-13.38,17.59l-2.38,0c-4.25,-5.56 -8.63,-11.38 -13.13,-17.2c0,-0.13 -0.25,-0.39 -0.5,-0.39l0,17.59l-3.75,0l0,-24.7l3.5,0zm217.37,-9.83l0,45l-225,0l0,-45l225,0z" fill="black" fill-rule="evenodd"/>
  </symbol>
 </defs>
 <g class="layer">
  <title>Layer 1</title>
  <use id="svg_44" transform="matrix(0.94995 0 0 0.94995 -20.3134 -2.56129)" x="-16.44" xlink:href="#svg_43" y="-15.22"/>
 </g>
</svg>