<svg width="470" height="500" xmlns="http://www.w3.org/2000/svg" xmlns:svg="http://www.w3.org/2000/svg" preserveAspectRatio="xMidYMid meet" version="1.0">
 <g class="layer">
  <title>Layer 1</title>
  <g id="svg_45">
   <path d="m15.95,188.12c0,132.27 0.78,154.51 6.24,161.92c5.85,8.58 6.24,8.58 132.66,8.58l126.42,0l0,-161.92l0,-161.92l-132.66,0l-132.66,0l0,153.34zm198.21,9.36l-1.17,104.57l-64.38,0l-64.38,0l-1.17,-104.57l-0.78,-104.18l66.33,0l66.33,0l-0.78,104.18z" id="svg_34"/>
   <path d="m390.52,251.33l0,247.76l31.21,0l31.21,0l0,-247.76l0,-247.76l-31.21,0l-31.21,0l0,247.76z" id="svg_29"/>
  </g>
 </g>
</svg>