<svg width="500" height="530" xmlns="http://www.w3.org/2000/svg" xmlns:svg="http://www.w3.org/2000/svg">
 <title id="header-logo-title">L&#x27;Oréal Groupe</title>
 <defs>
  <clipPath id="clip0">
   <rect fill="white" height="36" id="svg_1" width="137"/>
  </clipPath>
 </defs>
 <g class="layer">
  <title>Layer 1</title>
  <path d="m248.28,449.81c-100.86,0 -183.92,-82.69 -183.92,-182.1c0,-99.41 79.06,-185.92 187.73,-185.92c24.17,-0.18 47.98,4.36 70.33,13.63c22.35,9.27 42.53,22.9 59.61,40.16c17.08,17.26 30.71,37.98 39.98,60.52c9.27,22.72 13.99,47.07 13.99,71.6c0,99.41 -86.87,182.1 -187.73,182.1zm1.82,-413.81c-145.75,0 -245.16,104.68 -245.16,231.53c0,133.58 109.77,227.72 245.16,227.72c135.21,0 244.8,-92.87 244.8,-227.72c0,-126.85 -100.5,-231.53 -244.8,-231.53z" fill="#ffffff" id="svg_9"/>
 </g>
</svg>