<svg width="270" height="30" xmlns="http://www.w3.org/2000/svg" xmlns:svg="http://www.w3.org/2000/svg" xmlns:xlink="http://www.w3.org/1999/xlink">
 <!-- Created with SVG-edit - https://github.com/SVG-Edit/svgedit-->
 <defs>
  <symbol height="50" id="svg_62" width="250" xmlns="http://www.w3.org/2000/svg" xmlns:svg="http://www.w3.org/2000/svg" xmlns:xlink="http://www.w3.org/1999/xlink">
   <!-- Created with SVG-edit - https://github.com/SVG-Edit/svgedit-->
   <defs>
    <symbol height="88" id="svg_50" viewBox="0 0 305 88" width="305" xmlns="http://www.w3.org/2000/svg">
     <path d="m16,54.35l0,-0.63l1.7,0l0,-18.84l-1.7,0l0,-0.65l8.26,0c4.77,0 6.44,2.33 6.44,4.86c0,2.81 -2.15,4.77 -6.25,5.02l6.75,9.59l1.4,0l0,0.64l-4.52,0l-7.2,-10.23l-0.11,0l0,9.59l2.16,0l0,0.64l-6.93,0l0,0.01zm4.77,-10.69l1.68,0c3.37,0 5.02,-1.69 5.02,-4.56c0,-2.04 -0.99,-4.22 -4.12,-4.22l-2.59,0l0,8.78l0.01,0z" fill="black" id="svg_61"/>
     <path d="m38.5,54.35l0,-0.63l1.64,0l6.58,-19.72l1.81,0l6.25,19.72l1.13,0l0,0.63l-6.3,0l0,-0.63l2.1,0l-2.32,-7.44l-5.99,0l-2.47,7.44l2.72,0l0,0.63l-5.15,0zm5.12,-8.71l5.59,0l-2.71,-8.51l-0.06,0l-2.82,8.51z" fill="black" id="svg_60"/>
     <path d="m69.07,53.72l4.19,0c1.89,0 2.43,-0.36 4.13,-7.44l0.62,0l0,8.07l-13.71,0l0,-0.63l1.7,0l0,-18.84l-1.7,0l0,-0.65l7.61,0l0,0.65l-2.84,0l0,18.84z" fill="black" id="svg_59"/>
     <path d="m87.9,54.35l0,-0.63l1.71,0l0,-18.84l-1.71,0l0,-0.65l8.15,0c4.51,0 6.95,2.22 6.95,5.26c0,3.06 -2.27,5.09 -6.92,5.09l-3.42,0l0,9.12l2.62,0l0,0.64l-7.38,0l0,0.01zm4.77,-10.39l2.67,0c3.07,0 4.43,-0.97 4.43,-4.46c0,-2.72 -1.21,-4.62 -4.17,-4.62l-2.93,0l0,9.08z" fill="black" id="svg_58"/>
     <path d="m116.32,44.24l0,9.48l1.88,0l0,0.63l-6.64,0l0,-0.63l1.7,0l0,-18.84l-1.7,0l0,-0.65l6.64,0l0,0.65l-1.88,0l0,8.72l7.52,0l0,-8.72l-1.87,0l0,-0.65l6.64,0l0,0.65l-1.7,0l0,18.84l1.7,0l0,0.63l-6.64,0l0,-0.63l1.87,0l0,-9.48l-7.52,0z" fill="black" id="svg_57"/>
     <path d="m157.27,53.72l4.2,0c1.87,0 2.41,-0.36 4.11,-7.44l0.63,0l0,8.07l-13.71,0l0,-0.63l1.7,0l0,-18.84l-1.7,0l0,-0.65l7.6,0l0,0.65l-2.83,0l0,18.84z" fill="black" id="svg_56"/>
     <path d="m173.95,54.35l0,-0.63l1.65,0l6.58,-19.72l1.81,0l6.25,19.72l1.14,0l0,0.63l-6.3,0l0,-0.63l2.1,0l-2.32,-7.44l-5.99,0l-2.48,7.44l2.73,0l0,0.63l-5.17,0zm5.11,-8.71l5.59,0l-2.7,-8.51l-0.06,0l-2.83,8.51z" fill="black" id="svg_55"/>
     <path d="m206.21,34.23l0,0.65l-2.04,0l0,14.63c0,3.55 1.96,4.68 3.76,4.68c2.7,0 4.59,-1.86 4.59,-4.88l0,-14.43l-2.55,0l0,-0.65l5.05,0l0,0.65l-1.7,0l0,14.45c0,3.36 -2.19,5.49 -5.51,5.49c-4.59,0 -6.7,-1.98 -6.7,-6l0,-13.94l-1.71,0l0,-0.65l6.81,0z" fill="black" id="svg_54"/>
     <path d="m223.9,54.35l0,-0.63l1.7,0l0,-18.84l-1.7,0l0,-0.65l8.26,0c4.77,0 6.44,2.33 6.44,4.86c0,2.81 -2.15,4.77 -6.25,5.02l6.75,9.59l1.4,0l0,0.64l-4.52,0l-7.21,-10.23l-0.11,0l0,9.59l2.15,0l0,0.64l-6.91,0l0,0.01zm4.76,-10.69l1.67,0c3.38,0 5.03,-1.69 5.03,-4.56c0,-2.04 -0.99,-4.22 -4.11,-4.22l-2.58,0l0,8.78l-0.01,0z" fill="black" id="svg_53"/>
     <path d="m248.04,54.35l0,-0.63l1.71,0l0,-18.84l-1.71,0l0,-0.65l14.42,0l0,6.46l-0.62,0c-1.53,-5.43 -1.98,-5.81 -3.41,-5.81l-5.62,0l0,8.72l2.22,0c1.43,0 2.1,-0.9 2.67,-4.01l0.63,0l0,8.66l-0.63,0c-0.56,-3.11 -1.24,-4.01 -2.67,-4.01l-2.22,0l0,9.48l4.99,0c2.02,0 2.62,-0.79 4.3,-6.8l0.62,0l0,7.43l-14.68,0z" fill="black" id="svg_52"/>
     <path d="m274.91,35.47l-0.06,0l0,18.26l2.39,0l0,0.63l-5.05,0l0,-0.63l1.87,0l0,-18.84l-1.87,0l0,-0.65l5.45,0l8.34,14.53l0.06,0l0,-13.89l-2.27,0l0,-0.65l4.94,0l0,0.65l-1.87,0l0,19.47l-0.97,0l-10.96,-18.88z" fill="black" id="svg_51"/>
    </symbol>
   </defs>
   <g class="layer">
    <title>Layer 1</title>
    <use id="svg_49" transform="matrix(0.875827 0 0 0.875827 1.88872 -12.8926)" x="-13.7" xlink:href="#svg_50" y="0"/>
   </g>
  </symbol>
 </defs>
 <g class="layer">
  <title>Layer 1</title>
  <use id="svg_63" transform="matrix(1.10672 0 0 1.10672 9.94787 -5.39071)" x="-11.04" xlink:href="#svg_62" y="-8.47"/>
 </g>
</svg>