<svg width="220" height="50" xmlns="http://www.w3.org/2000/svg" xmlns:svg="http://www.w3.org/2000/svg" xmlns:xlink="http://www.w3.org/1999/xlink">
 <!-- Created with SVG-edit - https://github.com/SVG-Edit/svgedit-->
 <defs>
  <symbol height="88" id="svg_45" viewBox="0 0 305 88" width="305" xmlns="http://www.w3.org/2000/svg">
   <path clip-rule="evenodd" d="m61.83,72.76c0,0 0,-0.13 0,-0.34l0,0.34zm0,0c0,0 0,-0.16 0,-0.34l0,0.34zm0.62,-7.22l-1.76,0c-0.34,0 -0.43,0.1 -0.45,0.36l-0.46,0.01l0,-0.92l6.42,0l0,0.91l-0.47,0c-0.02,-0.26 -0.11,-0.36 -0.44,-0.36l-1.78,0l0.01,5.84c0,0.82 0.14,1.04 0.62,1.04c0,0.28 0,0.34 0,0.34l-2.31,0c0,0 0,-0.11 0,-0.34c0.65,0 0.63,-0.22 0.63,-1.04l-0.01,-5.84zm22.13,5.84c0,0.43 0.02,0.72 0.1,0.84c0.06,0.11 0.08,0.16 0.35,0.17l0.06,0.03l0,0.33l-2.08,0l0,-0.33l0.06,-0.03c0.27,-0.01 0.28,-0.06 0.35,-0.17c0.08,-0.12 0.1,-0.41 0.1,-0.84l0,-2.49l-4.46,0l0,2.49c0,0.43 0.03,0.72 0.1,0.84c0.07,0.11 0.08,0.16 0.34,0.17l0.06,0.03l0,0.33l-2.08,0l0,-0.33l0.06,-0.03c0.27,-0.01 0.3,-0.06 0.37,-0.17c0.07,-0.12 0.1,-0.41 0.1,-0.84l0,-5.02c0,-0.42 -0.03,-0.71 -0.1,-0.83c-0.07,-0.12 -0.1,-0.16 -0.37,-0.17l-0.06,-0.04l0,-0.33l2.08,0l0,0.33l-0.06,0.04c-0.26,0.01 -0.27,0.05 -0.34,0.17c-0.07,0.12 -0.1,0.41 -0.1,0.83l0,1.99l4.46,0l0,-1.99c0,-0.42 -0.02,-0.71 -0.1,-0.83c-0.07,-0.12 -0.08,-0.16 -0.35,-0.17l-0.06,-0.04l0,-0.33l2.08,0l0,0.33l-0.06,0.04c-0.27,0.01 -0.29,0.05 -0.35,0.17c-0.08,0.12 -0.1,0.41 -0.1,0.83l0,5.02zm29.06,-1.61l-1.4,-3.33l-1.42,3.33l2.82,0zm1.75,1.53c0.1,0.23 0.22,0.53 0.36,0.76c0.12,0.21 0.24,0.36 0.44,0.38l0.11,0.04l0,0.33l-2.22,0l0,-0.33l0.14,-0.04c0.23,-0.01 0.37,-0.09 0.37,-0.22c0,-0.16 -0.12,-0.45 -0.24,-0.72l-0.51,-1.28l-3.21,0l-0.31,0.75c-0.1,0.23 -0.39,0.98 -0.39,1.16c0,0.23 0.07,0.28 0.42,0.31l0.09,0.04l0,0.33l-1.78,0l0,-0.33l0.07,-0.04c0.27,-0.02 0.48,-0.26 0.6,-0.55l1.98,-4.52c0.35,-0.79 0.73,-1.61 1.03,-2.42l0.35,0l2.7,6.35zm14.31,0.12l2.04,-5.28c0.23,-0.6 0.11,-0.71 -0.18,-0.73l-0.15,-0.03l0,-0.34l1.61,0l0,0.34l-0.08,0.03c-0.23,0.02 -0.38,0.27 -0.6,0.81l-1.94,4.7c-0.26,0.64 -0.51,1.28 -0.71,1.96l-0.56,0c-0.17,-0.66 -0.42,-1.3 -0.64,-1.85l-2.1,-5.16c-0.14,-0.36 -0.3,-0.45 -0.49,-0.46l-0.08,-0.03l0,-0.34l2.09,0l0,0.34l-0.19,0.03c-0.21,0.01 -0.31,0.08 -0.21,0.35l2.19,5.66zm14.93,-5c0,-0.43 -0.02,-0.72 -0.1,-0.84c-0.06,-0.11 -0.08,-0.16 -0.35,-0.17l-0.06,-0.03l0,-0.39l5.36,0l-0.18,0.94l-0.39,0.01l0,-0.08c0,-0.15 0,-0.3 -0.1,-0.3c-0.56,0 -2.81,-0.01 -3.12,-0.01l0,3.04l2.48,-0.01l0.14,-0.48l0.34,0c-0.02,0.46 -0.04,0.41 -0.04,0.82c0,0.41 0.02,0.36 0.04,0.76l-0.34,0l-0.14,-0.56c0,0 -2.1,0 -2.48,0l0,3.13c0.31,0 2.99,0 3.19,0c0.19,0 0.31,0.06 0.39,-0.61l0.39,0c-0.11,0.54 -0.18,1.14 -0.18,1.14l-5.37,0l0,-0.3c0,0 0.36,-0.09 0.42,-0.21c0.08,-0.12 0.1,-0.41 0.1,-0.84l0,-5.01zm54.07,0c0,-0.43 -0.03,-0.72 -0.1,-0.84c-0.07,-0.11 -0.09,-0.16 -0.36,-0.17l-0.06,-0.03l0,-0.39l5.36,0l-0.18,0.94l-0.39,0.01l0,-0.08c0,-0.15 0,-0.3 -0.1,-0.3c-0.55,0 -2.8,-0.01 -3.12,-0.01l0,3.04l2.48,-0.01c0,0 0.08,-0.23 0.09,-0.37l0.05,-0.11l0.34,0c-0.01,0.46 -0.04,0.41 -0.04,0.82c0,0.41 0.03,0.36 0.04,0.76l-0.34,0l-0.05,-0.18c-0.01,-0.14 -0.09,-0.38 -0.09,-0.38c0,0 -2.1,0 -2.48,0l0,3.13c0.31,0 2.99,0 3.19,0c0.19,0 0.31,0.06 0.39,-0.61l0.39,0c-0.11,0.54 -0.18,1.14 -0.18,1.14l-5.37,0l0,-0.3c0,0 0.36,-0.09 0.43,-0.21c0.07,-0.12 0.1,-0.41 0.1,-0.84l0,-5.01zm-37.53,-0.05c0,-0.43 -0.02,-0.72 -0.1,-0.84c-0.07,-0.11 -0.2,-0.15 -0.47,-0.17l-0.01,-0.03l0,-0.34c0.49,0.01 1.26,0.01 1.46,0l5.33,6.6l0.03,0l0,-5.22c0,-0.43 -0.02,-0.72 -0.1,-0.84c-0.07,-0.11 -0.2,-0.15 -0.47,-0.17l-0.01,-0.03l0,-0.34c0.44,0.01 1.18,0.01 1.67,0l0,0.34l-0.01,0.03c-0.27,0.02 -0.4,0.06 -0.47,0.17c-0.07,0.12 -0.1,0.41 -0.1,0.84l0,6.39l-0.97,0.01l-5.24,-6.54l-0.02,0l0,5.15c0,0.43 0.02,0.72 0.1,0.84c0.06,0.11 0.2,0.15 0.46,0.17l0.02,0.03l0,0.34c-0.49,-0.01 -1.24,-0.01 -1.68,0l0,-0.34l0.01,-0.03c0.27,-0.02 0.4,-0.06 0.47,-0.17c0.08,-0.12 0.1,-0.41 0.1,-0.84l0,-5.01zm66.19,0c0,-0.43 -0.02,-0.72 -0.1,-0.84c-0.06,-0.11 -0.2,-0.15 -0.47,-0.17l-0.01,-0.03l0,-0.34c0.49,0.01 1.26,0.01 1.46,0l5.33,6.6l0.03,0l0,-5.22c0,-0.43 -0.02,-0.72 -0.1,-0.84c-0.06,-0.11 -0.2,-0.15 -0.47,-0.17l-0.01,-0.03l0,-0.34c0.45,0.01 1.19,0.01 1.68,0l0,0.34l-0.02,0.03c-0.26,0.02 -0.4,0.06 -0.46,0.17c-0.08,0.12 -0.11,0.41 -0.11,0.84l0,6.39l-0.96,0.01l-5.25,-6.54l-0.02,0l0,5.15c0,0.43 0.02,0.72 0.1,0.84c0.06,0.11 0.2,0.15 0.46,0.17l0.02,0.03l0,0.34c-0.49,-0.01 -1.23,-0.01 -1.68,0l0,-0.34l0.01,-0.03c0.27,-0.02 0.41,-0.06 0.47,-0.17c0.08,-0.12 0.1,-0.41 0.1,-0.84l0,-5.01zm-47.11,0.01c0,-0.42 -0.02,-0.72 -0.1,-0.84c-0.07,-0.11 -0.07,-0.16 -0.34,-0.16l-0.05,-0.04l0,-0.33l2.05,0l0,0.33l-0.06,0.04c-0.27,0 -0.28,0.05 -0.34,0.16c-0.08,0.12 -0.1,0.42 -0.1,0.84l0,3.84c0,1.59 0.82,2.05 2.29,2.05c1.21,0 2.3,-0.46 2.3,-2.31l0,-3.58c0,-0.42 -0.03,-0.72 -0.1,-0.84c-0.07,-0.11 -0.08,-0.14 -0.35,-0.16l-0.01,-0.04l0,-0.33c1.3,0.01 0.74,0.01 1.46,0l0,0.33l-0.01,0.04c-0.27,0.02 -0.31,0.05 -0.38,0.16c-0.08,0.12 -0.1,0.42 -0.1,0.84l0,3.23c0,2.39 -0.9,3.35 -3.15,3.35c-1.9,0 -3.01,-0.57 -3.01,-2.61l0,-3.97zm89.33,6.02c-0.64,0.39 -1.74,0.6 -2.42,0.6c-2.68,0 -4.48,-1.53 -4.48,-4.07c0,-1.28 0.5,-2.3 1.36,-3c0.83,-0.7 1.97,-1.08 3.21,-1.08c1.04,0 2.04,0.27 2.58,0.46l-0.23,0.97l-0.5,0c0,0 0.14,-0.66 -0.67,-0.89c-0.36,-0.1 -0.95,-0.11 -1.36,-0.11c-2.1,0 -3.2,1.57 -3.2,3.47c0,2.22 1.46,3.65 3.66,3.65c0.81,0 1.75,-0.29 2.27,-0.67l0.1,0.11l-0.32,0.56zm-223.22,-4.86c1.38,0 2.52,0.91 2.46,2.28c-0.07,1.7 -2.06,3.06 -4.1,3.06c-0.16,-0.2 -0.38,-0.41 -0.66,-0.62l0.07,-0.18c0.27,0.08 0.48,0.14 0.95,0.14c1.59,0 2.72,-0.85 2.8,-2.19c0.08,-1.38 -1.11,-1.82 -1.86,-1.82c-0.48,0 -0.9,0.21 -1.29,0.32l-0.11,-0.07l0,-3.49l4.2,0.02l0,0.88l-3.7,0l0.01,1.93c0,0 0.63,-0.26 1.23,-0.26zm204.6,-2.6l1.61,0c0,0 0,0.14 0,0.34c-0.35,0 -0.78,0.3 -1.07,0.83l-1.36,2.49l0.01,0l-0.08,0.13l-0.3,0.55c-0.05,0.14 -0.11,0.38 -0.11,0.72l0,0.51c0,0.42 0.03,1.59 0.1,1.72c0.07,0.11 0.2,0.15 0.47,0.16l0.06,0.04l0,0.33l-2.31,0l0,-0.33l0.06,-0.04c0.26,-0.01 0.4,-0.05 0.46,-0.16c0.08,-0.13 0.1,-1.3 0.1,-1.72l0,-0.66c0,-0.18 -0.03,-0.33 -0.1,-0.45l-1.38,-2.41c-0.58,-1.01 -1.18,-1.63 -1.46,-1.67l-0.21,-0.03l0,-0.3l1.21,0c0,0 0.22,0.05 0.58,0.4c0.21,0.22 0.34,0.46 0.48,0.73l1.59,2.85l0.21,-0.34l1.43,-2.59c0.44,-0.81 0.01,-0.76 0.01,-0.76l0,-0.34zm-144.96,-12.74c2.41,0 3.92,0.02 4.49,-2.73l2,0l-0.79,5.5l-40.67,0.01c-1.28,-1.47 -3.41,-4.35 -6.41,-8.63c-1.66,-2.38 -3.13,-4.36 -4.4,-5.95c-2.06,-2.63 -4.01,-5.02 -5.87,-7.16l0.29,-0.89c1.02,0.06 1.8,0.09 2.32,0.09c3.57,0 6.28,-0.85 8.13,-2.54c1.84,-1.7 2.76,-3.94 2.76,-6.72c0,-2.43 -0.8,-4.49 -2.39,-5.92c-1.59,-1.43 -4,-2.14 -7.22,-2.14c-2.02,0 -5.02,-0.01 -7.1,-0.01c0,1.07 -0.01,31.78 -0.01,34.32c0,2.67 0,4 1.58,4l0,1.55c-2.76,0 -4.25,0 -8.7,0l0,-1.54c1.6,0 1.6,-1.28 1.6,-4.36c0,-0.42 0,-27.53 0,-30.09c0,-3.09 0.03,-4.4 -1.61,-4.4l0,-1.54c0.8,0 15.81,-0.05 16.3,-0.05c3.75,0 6.48,0.34 8.2,1.01c1.72,0.67 3.05,1.75 3.99,3.26c0.94,1.51 1.42,3.15 1.42,4.92c0,1.65 -0.45,3.3 -1.33,4.93c-0.89,1.64 -2.17,3 -3.85,4.08c-1.68,1.08 -3.87,1.92 -6.56,2.51c0.49,0.69 1.65,2.22 3.47,4.6l7.4,10.13c2.54,3.84 4.03,4.99 6.19,4.99c3.84,0 3.98,-0.88 3.98,-4.2c0,-2.54 -0.17,-26.21 -0.17,-30.24c0,-4.03 0.03,-4.4 -1.56,-4.4l0,-1.54l30.22,0l-0.81,4.61l-1.62,0c0,-1.86 -1.79,-1.81 -4.27,-1.81c-1.67,0 -15.48,0.01 -16.32,0.01c0,2.19 0.04,4.24 0,6.15l0,10.03c0.51,0 6.81,0 8.75,0c5.32,0 5.73,0 5.73,-1.58c0.73,0 1.54,0 1.54,0l0,5.93c0,0 -0.3,0 -1.55,0c0,-1.59 -0.39,-1.6 -5.52,-1.6c-1.31,0 -8.48,0 -8.95,0c0,3.92 0,17.38 0,17.41c2.91,0 8.52,0 12.02,0c2.48,0 4.17,0 5.3,0zm41.44,-11.74c0.67,-2.39 1.01,-4.86 1.01,-7.42c0,-3.65 -0.65,-6.8 -1.95,-9.42c-1.31,-2.63 -3.28,-4.64 -5.9,-6.03c-2.63,-1.4 -6.67,-1.77 -18.47,-1.77c-0.05,0.97 0,18.99 0,18.99l0.05,17.17c0,0 4.67,0 7.06,0c7.58,0 10.06,-1.36 11.4,-2.15c1.35,-0.79 2.64,-1.95 3.9,-3.48c1.25,-1.54 2.22,-3.5 2.9,-5.89zm-3.18,-25.62c2.92,1.23 5.4,3.29 7.43,6.19c2.04,2.89 3.06,6.42 3.06,10.59c0,2.99 -0.48,5.79 -1.44,8.4c-0.96,2.62 -2.26,4.91 -3.91,6.86c-1.64,1.96 -3.4,3.51 -5.28,4.65c-1.88,1.14 -3.86,2 -5.92,2.58c-2.07,0.58 -4.9,0.87 -8.51,0.87c-1.19,0 -14.65,0 -14.65,0l0,-1.43c1.59,0 1.62,-0.5 1.62,-4.32l0,-30.23c0,-3.69 -0.06,-4.52 -1.62,-4.52l0,-1.42c3.04,0 16.05,-0.06 17.65,-0.06c4.8,0 8.66,0.62 11.57,1.84zm78.75,37.37c2.41,0 3.92,0.01 4.49,-2.73l2,0l-0.79,5.5c0,0 -5.35,0.01 -6.14,0.01c-0.82,0 -3.09,0 -19.91,-0.02c-0.26,0 -1.53,0.01 -6.42,0.01c0,0 1.11,0.01 0,0.01c-0.57,0 -2.25,0 -4,0c0,0 0,0 0,-0.01l-4.4,0.01c0,0 -2.09,-2.04 -4.92,-4.76l-3.03,-2.93l-13.38,-12.59l-0.82,-0.82l19.7,-20.82l4.73,0l0,1.53c-1.87,0 -0.59,0.01 -1.26,0.01c-2.16,0 -17.37,17.18 -17.37,17.18l17.68,16.57c2.84,2.67 4.46,4.12 4.86,4.36c0.2,0.12 0.5,0.37 0.9,0.54c0.42,0.12 0.85,0.18 1.31,0.18c3.83,0 3.86,-0.88 3.86,-4.21c0,-2.53 -0.05,-26.21 -0.05,-30.24c0,-4.02 0.02,-4.39 -1.56,-4.39l0,-1.54l30.22,0l-0.81,4.6l-1.62,0c0,-1.85 -1.79,-1.8 -4.28,-1.8c-1.66,0 -15.47,0 -16.31,0c0,2.19 0.03,4.24 0,6.16l0,10.03c0.51,0 6.81,0 8.75,0c5.32,0 5.73,0 5.73,-1.58c0.73,0 1.76,0 1.76,0l0,5.92c0,0 -0.52,0 -1.77,0c0,-1.59 -0.39,-1.6 -5.52,-1.6c-1.31,0 -8.48,0 -8.95,0c0,3.93 0,17.39 0,17.42c2.9,0 8.52,0 12.02,0c2.48,0 4.17,0 5.3,0zm41.87,-39.15l5.79,0l0,1.52c-1.41,0 -1.43,0.17 -1.43,4.05c0,2.6 0,36.35 0,36.35l-3,0l-30.22,-35.75c0,0 -0.02,27.47 -0.02,30.12c0,3.53 0.07,4.09 1.51,4.09l0,1.54l-6.02,0l0,-1.54c1.66,0 1.6,-0.64 1.6,-4.13c0,-12.33 -0.03,-13.03 0.05,-31.43c0,-2.82 0.02,-3.3 -1.65,-3.3c0,-0.57 0,-1.52 0,-1.52l7.07,0c0,0 2.85,3.79 3.63,4.83l6.01,7.51l8.76,10.71c2.81,3.42 5.06,6.11 6.77,8.07c1.08,1.3 1.83,2.32 2.56,3.06c0,0 0.04,-26.03 0.04,-28.62c0,-3.75 -0.02,-4.03 -1.45,-4.03l0,-1.53zm-100.08,35.97c0,3.69 0.06,4.52 1.63,4.52l0,1.42c-0.73,0 -3.34,0.01 -5.05,0.01l0,0c-2.2,0 -3.85,0 -3.85,0l0,-1.43c1.59,0 1.62,-0.5 1.62,-4.32l0,-30.23c0,-3.69 -0.06,-4.52 -1.62,-4.52l0,-1.42c0.72,0 2.03,0 3.61,-0.01l0,0c2.2,0 5.29,0 5.29,0l0,1.43c-1.59,0 -1.63,0.51 -1.63,4.32l0,30.23z" fill="black" fill-rule="evenodd"/>
  </symbol>
 </defs>
 <g class="layer">
  <title>Layer 1</title>
  <use id="svg_46" transform="matrix(0.944021 0 0 0.944021 -23.3253 2.87206)" x="-17.06" xlink:href="#svg_45" y="-10.31"/>
 </g>
</svg>