<svg width="470" height="500" xmlns="http://www.w3.org/2000/svg" xmlns:svg="http://www.w3.org/2000/svg" preserveAspectRatio="xMidYMid meet" version="1.0">
 <g class="layer">
  <title>Layer 1</title>
  <g id="svg_48">
   <path d="m18,232.45l0,22.89l94.85,0l94.85,0l0,19.62l0,19.62l-57.24,0l-57.24,0l0,22.89l0,22.89l114.8,0l114.47,0l-0.98,15.37l-0.98,15.7l-113.49,0.98l-113.82,0.65l0,56.91c0,50.7 0.65,57.24 5.89,61.82c5.56,4.91 20.61,5.56 147.18,5.56l141.29,0l0,-22.89l0,-22.89l-120.03,-0.65l-120.36,-0.98l-0.98,-15.7l-0.98,-15.37l114.47,0l114.8,0l0,-62.14l0,-62.14l-55.6,0l-55.6,0l0,-19.62l0,-19.62l94.85,0l94.85,0l0,-22.89l0,-22.89l-217.5,0l-217.5,0l0,22.89z" id="svg_47"/>
   <path d="m207.7,18.22c0,29.44 -18.64,57.24 -54.95,81.44c-20.93,13.74 -59.2,31.4 -80.13,36.3c-4.91,1.31 -9.81,3.6 -10.47,5.23c-0.98,1.31 2.62,11.77 8.18,22.89c11.77,22.89 9.48,22.57 52.33,5.89c35.65,-13.74 74.24,-37.29 95.5,-58.87l18.97,-18.64l10.14,12.76c14.39,18.32 59.85,47.42 100.41,63.78c19.3,7.85 37.29,14.39 39.9,14.39c2.94,0 9.48,-8.83 15.37,-20.93l10.47,-20.93l-25.18,-8.83c-37.61,-13.08 -68.36,-30.42 -89.62,-50.37c-22.89,-20.93 -32.05,-37.29 -34.34,-61.16l-1.96,-17.66l-27.15,0l-27.47,0l0,14.72z" id="svg_46"/>
  </g>
 </g>
</svg>