<svg width="190" height="50" xmlns="http://www.w3.org/2000/svg" xmlns:svg="http://www.w3.org/2000/svg" xmlns:xlink="http://www.w3.org/1999/xlink">
 <!-- Created with SVG-edit - https://github.com/SVG-Edit/svgedit-->
 <defs>
  <symbol height="88" id="svg_47" viewBox="0 0 305 88" width="305" xmlns="http://www.w3.org/2000/svg">
   <path clip-rule="evenodd" d="m193.32,17.01l6.34,0l0,40.47l-6.34,0l0,-18.13l-22.32,0l0,18.13l-6.35,0l0,-40.47l6.35,0l0,17.35l22.32,0l0,-17.35zm-101.2,55.07l3.47,-8.47l3.46,8.47l-0.99,0l-0.89,-2.31l-3.17,0l-0.89,2.31l-0.99,0zm3.47,-6.42l-1.29,3.34l2.57,0l-1.28,-3.34zm52.6,6.42l3.47,-8.47l3.47,8.47l-0.99,0l-0.89,-2.31l-3.17,0l-0.89,2.31l-1,0zm3.47,-6.42l-1.28,3.34l2.57,0l-1.29,-3.34zm38.04,6.42l0,-7.96l0.99,0l0,7.96l-0.99,0zm-80.54,-14.6l0,-40.47l6.36,0l0,40.47l-6.36,0zm-15.41,-40.48l6.57,0l-19.14,40.48l-19.18,-40.48l6.58,0c0,0 12.71,27.35 12.65,27.42l12.52,-27.42zm51.42,35.06c4.11,0 7.87,-1.35 10.79,-3.6l0,6.4c-3.18,1.67 -6.87,2.62 -10.79,2.62c-12.11,0 -21.92,-9.06 -21.92,-20.24c0,-11.17 9.81,-20.23 21.92,-20.23c3.92,0 7.61,0.95 10.79,2.62l0,6.4c-2.92,-2.25 -6.68,-3.6 -10.79,-3.6c-9.32,0 -16.14,6.21 -16.14,14.81c0,8.61 6.82,14.82 16.14,14.82zm-36.7,16.17l0,3.09l0.97,0c1.31,0 1.88,-0.55 1.88,-1.52c0,-0.95 -0.61,-1.57 -1.99,-1.57l-0.86,0zm0,-3.34l0,2.57l0.44,0c0.58,0 1,-0.07 1.26,-0.21c0.36,-0.2 0.53,-0.42 0.53,-0.99c0,-0.54 -0.16,-0.96 -0.5,-1.16c-0.24,-0.14 -0.67,-0.21 -1.28,-0.21l-0.45,0zm-0.75,7.19l0,-7.97l1.27,0c1.71,0 2.57,0.72 2.57,2.15c0,0.7 -0.25,1.21 -0.76,1.56c0.45,0.11 0.81,0.36 1.07,0.74c0.26,0.38 0.31,0.81 0.31,1.3c0,0.75 -0.27,1.32 -0.8,1.7c-0.49,0.35 -1.05,0.52 -1.87,0.52l-1.79,0zm16.96,-7.39c-0.89,0 -1.65,0.32 -2.28,0.96c-0.62,0.64 -0.94,1.42 -0.94,2.32c0,0.9 0.32,1.67 0.95,2.32c0.62,0.64 1.38,0.96 2.27,0.96c0.89,0 1.65,-0.32 2.28,-0.96c0.63,-0.65 0.94,-1.42 0.94,-2.32c0,-0.9 -0.31,-1.68 -0.94,-2.32c-0.62,-0.64 -1.38,-0.96 -2.28,-0.96zm0,-0.82c1.13,0 2.09,0.4 2.89,1.2c0.8,0.81 1.21,1.78 1.21,2.91c0,1.14 -0.41,2.1 -1.21,2.9c-0.8,0.8 -1.76,1.2 -2.89,1.2c-1.12,0 -2.09,-0.4 -2.89,-1.2c-0.8,-0.8 -1.2,-1.76 -1.2,-2.9c0,-1.13 0.4,-2.1 1.2,-2.91c0.8,-0.8 1.77,-1.2 2.89,-1.2zm52.4,0.82c-0.9,0 -1.66,0.32 -2.28,0.96c-0.63,0.64 -0.94,1.42 -0.94,2.32c0,0.9 0.31,1.67 0.94,2.32c0.63,0.64 1.39,0.96 2.28,0.96c0.89,0 1.64,-0.32 2.27,-0.96c0.63,-0.65 0.94,-1.42 0.94,-2.32c0,-0.9 -0.31,-1.68 -0.93,-2.32c-0.63,-0.64 -1.39,-0.96 -2.28,-0.96zm0,-0.82c1.12,0 2.08,0.4 2.89,1.2c0.8,0.81 1.2,1.78 1.2,2.91c0,1.14 -0.4,2.1 -1.2,2.9c-0.81,0.8 -1.77,1.2 -2.89,1.2c-1.13,0 -2.09,-0.4 -2.89,-1.2c-0.81,-0.8 -1.21,-1.76 -1.21,-2.9c0,-1.13 0.4,-2.1 1.21,-2.91c0.8,-0.8 1.76,-1.2 2.89,-1.2zm52.08,1.23l-0.68,0.46c-0.32,-0.58 -0.76,-0.87 -1.32,-0.87c-0.34,0 -0.64,0.12 -0.89,0.35c-0.25,0.23 -0.38,0.53 -0.38,0.88c0,0.3 0.14,0.57 0.41,0.79c0.16,0.14 0.43,0.29 0.79,0.45l0.51,0.24c0.6,0.27 1.03,0.54 1.29,0.81c0.36,0.37 0.55,0.84 0.55,1.41c0,0.69 -0.24,1.27 -0.7,1.74c-0.47,0.48 -1.04,0.71 -1.71,0.71c-0.61,0 -1.13,-0.18 -1.56,-0.56c-0.43,-0.37 -0.7,-0.87 -0.82,-1.49l0.83,-0.24c0.05,0.41 0.22,0.76 0.51,1.05c0.28,0.28 0.62,0.42 1.02,0.42c0.42,0 0.79,-0.15 1.1,-0.44c0.32,-0.3 0.47,-0.67 0.47,-1.1c0,-0.42 -0.14,-0.75 -0.43,-1.01c-0.19,-0.17 -0.51,-0.36 -0.98,-0.57l-0.46,-0.21c-0.54,-0.24 -0.93,-0.48 -1.17,-0.73c-0.33,-0.35 -0.5,-0.78 -0.5,-1.3c0,-0.59 0.22,-1.08 0.65,-1.47c0.41,-0.36 0.9,-0.55 1.49,-0.55c0.9,0 1.56,0.41 1.98,1.23zm-16.17,6.98l0,-7.95l4.21,0l0,0.82l-3.36,0l0,2.36l3.11,0l0,0.83l-3.11,0l0,3.12l3.36,0l0,0.82l-4.21,0zm-130.91,-7.96l0,7.14l2.12,0l0,0.82l-2.97,0l0,-7.96l0.85,0zm82.29,0.82l0,7.14l-0.85,0l0,-7.14l-1.86,0l0,-0.82l4.58,0l0,0.82l-1.87,0zm-27.06,0l0,2.86l0.27,0c0.59,0 1.04,-0.08 1.33,-0.25c0.41,-0.23 0.61,-0.62 0.61,-1.17c0,-0.59 -0.19,-1 -0.59,-1.22c-0.27,-0.14 -0.73,-0.22 -1.36,-0.22l-0.26,0zm0,3.64l0,3.5l-0.85,0l0,-7.96l1.11,0c1.87,0 2.81,0.73 2.81,2.19c0,0.62 -0.17,1.12 -0.52,1.53c-0.35,0.4 -0.81,0.62 -1.4,0.67l2.44,3.57l-1.05,0l-2.32,-3.5l-0.22,0zm63.66,-3.64l0,2.86l0.26,0c0.59,0 1.03,-0.08 1.33,-0.25c0.41,-0.23 0.61,-0.62 0.61,-1.17c0,-0.59 -0.19,-1 -0.59,-1.22c-0.28,-0.14 -0.73,-0.22 -1.36,-0.22l-0.25,0zm0,3.64l0,3.5l-0.86,0l0,-7.96l1.11,0c1.87,0 2.81,0.73 2.81,2.19c0,0.62 -0.17,1.12 -0.52,1.53c-0.35,0.4 -0.81,0.62 -1.41,0.67l2.45,3.57l-1.05,0l-2.32,-3.5l-0.21,0zm44.63,-51.57l-17.28,23.08l0,17.39l-5.88,0l0,-17.39l-17.28,-23.08l6.78,0l13.44,18.04l13.43,-18.04l6.79,0z" fill="black" fill-rule="evenodd"/>
  </symbol>
 </defs>
 <g class="layer">
  <title>Layer 1</title>
  <use id="svg_48" transform="matrix(0.990158 0 0 0.990158 -40.8819 1.21617)" x="-18.18" xlink:href="#svg_47" y="-13.13"/>
 </g>
</svg>